<svg width="32" height="15" viewBox="0 0 32 15" fill="none" xmlns="http://www.w3.org/2000/svg">
<path d="M3.02437 11.4815C3.52083 11.4815 3.95956 11.3908 4.34057 11.2094C4.72153 11.0185 5.01132 10.732 5.20995 10.3502L5.21464 11.3096L7.21958 11.3096L7.18137 3.49048L5.03322 3.49048L5.05555 8.05882C5.05774 8.50754 4.92585 8.87033 4.65988 9.1472C4.39386 9.41452 4.05081 9.54818 3.63072 9.54818C3.21064 9.54818 2.86628 9.41452 2.59765 9.1472C2.32897 8.87033 2.19354 8.50754 2.19135 8.05882L2.16902 3.49048L0.0208704 3.49048L0.0440356 8.23067C0.0487946 9.20448 0.305648 9.99213 0.814596 10.5936C1.33304 11.1855 2.06964 11.4815 3.02437 11.4815Z" fill="white"/>
<path d="M8.74799 2.78875L10.8961 2.78875L10.8856 0.64063L8.73749 0.64063L8.74799 2.78875ZM8.78963 11.3096H10.9378L10.8996 3.49048L8.75142 3.49048L8.78963 11.3096Z" fill="white"/>
<path d="M13.4549 11.3096H15.6031L15.574 5.35218H17.2495L17.2404 3.49048H15.5649L15.5643 3.37591C15.5609 2.67896 15.965 2.33049 16.7765 2.33049C16.9101 2.33049 17.0677 2.34481 17.2493 2.37345L17.2403 0.540385C17.0205 0.492649 16.7674 0.468781 16.481 0.468781C15.5071 0.468781 14.7494 0.721782 14.2076 1.22778C13.6754 1.73379 13.4116 2.44983 13.4161 3.37591L13.4167 3.49048H12.0992L12.1083 5.35218L13.4258 5.35218L13.4549 11.3096Z" fill="white"/>
<path d="M18.3836 11.3096H20.5317L20.5112 7.09932C20.5083 6.51694 20.6684 6.06822 20.9915 5.75317C21.3145 5.42856 21.7386 5.26626 22.2637 5.26626H22.9368L22.9277 3.40455L22.4694 3.40455C21.992 3.40455 21.5676 3.49525 21.1962 3.67665C20.8342 3.8485 20.5542 4.17787 20.356 4.66478L20.3503 3.49048L18.3454 3.49048L18.3836 11.3096Z" fill="white"/>
<path d="M25.1406 14.4889C26.5727 14.4889 27.6046 13.6726 28.2363 12.04L31.5456 3.49048L29.24 3.49048L27.4171 8.51709L25.5451 3.49048L23.2395 3.49048L26.3567 11.3096L26.2151 11.639C26.1018 11.8968 25.9549 12.1259 25.7745 12.3264C25.5941 12.5269 25.2938 12.6272 24.8737 12.6272C24.53 12.6272 24.2052 12.5794 23.8992 12.484L23.9078 14.2454C24.0705 14.3313 24.257 14.3934 24.4672 14.4316C24.687 14.4698 24.9115 14.4889 25.1406 14.4889Z" fill="white"/>
</svg>
