<svg width="67" height="30" viewBox="0 0 67 30" fill="none" xmlns="http://www.w3.org/2000/svg">
<path d="M6.58629 23.1302C7.62223 23.1302 8.53863 22.9409 9.3355 22.5624C10.1324 22.164 10.74 21.5663 11.1583 20.7695V22.7716H15.3419V6.45564H10.8595V15.9882C10.8595 16.9245 10.5806 17.6816 10.0228 18.2593C9.465 18.8171 8.74781 19.096 7.87125 19.096C6.99469 19.096 6.27751 18.8171 5.7197 18.2593C5.16188 17.6816 4.88298 16.9245 4.88298 15.9882V6.45564H0.400574V16.3468C0.400574 18.3788 0.928501 20.0224 1.98436 21.2775C3.06013 22.5126 4.59411 23.1302 6.58629 23.1302Z" fill="black"/>
<path d="M18.6181 4.99139H23.1005V0.508982H18.6181V4.99139ZM18.6181 22.7716H23.1005V6.45564H18.6181V22.7716Z" fill="black"/>
<path d="M28.3528 22.7716H32.8352V10.3404H36.3315V6.45564H32.8352V6.21658C32.8352 4.76229 33.6819 4.03514 35.3752 4.03514C35.6542 4.03514 35.9829 4.06503 36.3614 4.12479V0.299804C35.9032 0.200195 35.3752 0.150391 34.7776 0.150391C32.7456 0.150391 31.1618 0.678318 30.0262 1.73417C28.9106 2.79003 28.3528 4.28417 28.3528 6.21658V6.45564H25.6036V10.3404H28.3528V22.7716Z" fill="black"/>
<path d="M38.6371 22.7716H43.1195V13.9861C43.1195 12.7709 43.4582 11.8345 44.1355 11.1771C44.8129 10.4998 45.6994 10.1611 46.7951 10.1611H48.1996V6.27634H47.2433C46.2473 6.27634 45.3607 6.4656 44.5838 6.84412C43.8268 7.20271 43.2391 7.89001 42.8207 8.90602V6.45564H38.6371V22.7716Z" fill="black"/>
<path d="M52.7042 29.4056C55.6924 29.4056 57.854 27.7022 59.1887 24.2956L66.1813 6.45564H61.3702L57.5153 16.9445L53.6604 6.45564H48.8493L55.2741 22.7716L54.9753 23.4589C54.7362 23.9968 54.4274 24.4749 54.0489 24.8933C53.6704 25.3116 53.0428 25.5208 52.1663 25.5208C51.4491 25.5208 50.7718 25.4212 50.1343 25.222V28.8976C50.4729 29.0769 50.8614 29.2063 51.2997 29.286C51.7579 29.3657 52.2261 29.4056 52.7042 29.4056Z" fill="black"/>
</svg>
